<svg version="1.1" xmlns="http://www.w3.org/2000/svg" xmlns:xlink="http://www.w3.org/1999/xlink" width="500" height="500"><g data-paper-data="{&quot;description&quot;:&quot;Logo for Weaver\n===============\n\nThis logo was generated by MarkMaker at http://emblemmatic.org/markmaker/ and may be composed of elements designed by others.\n\nThe font is Cantora One designed by Impallari Type and released under the OFL license via Google Fonts: https://www.google.com/fonts/specimen/Cantora%20One. The font includes this copyright statement: Copyright (c) 2012, Pablo Impallari (www.impallari.com|impallari@gmail.com), Rodrigo Fuenzalida (www.rfuenzalida.com|hello@rfuenzalida.com) with Reserved Font Name Cantora.\n\nMarkMaker uses semantic data from the Princeton University WordNet database http://wordnet.princeton.edu and font descriptions from Google Fonts https://www.google.com/fonts.&quot;}" fill="none" fill-rule="nonzero" stroke="none" stroke-width="none" stroke-linecap="butt" stroke-linejoin="miter" stroke-miterlimit="10" stroke-dasharray="" stroke-dashoffset="0" font-family="none" font-weight="none" font-size="none" text-anchor="none" style="mix-blend-mode: normal"><path d="M55.93414,250c0,-110.45695 86.88625,-200 194.06586,-200c107.17962,0 194.06586,89.54305 194.06586,200c0,110.45695 -86.88625,200 -194.06586,200c-107.17962,0 -194.06586,-89.54305 -194.06586,-200z" fill="#3e0317" stroke-width="0"></path><g data-paper-data="{&quot;elementType&quot;:&quot;logo&quot;}" fill="#ffffff" stroke-width="1"><g data-paper-data="{&quot;elementType&quot;:&quot;text&quot;}"><g data-paper-data="{&quot;baseline&quot;:71.2,&quot;elementType&quot;:&quot;row&quot;}"><g data-paper-data="{&quot;baselineProportion&quot;:0.9834254143646408,&quot;fontSize&quot;:100,&quot;baseline&quot;:71.2,&quot;elementType&quot;:&quot;word&quot;}"><path d="M168.55302,326.7416l-0.21836,4.07599c-0.29114,2.71733 -0.72786,5.62875 -1.31014,8.73426c-0.58228,3.10552 -1.23735,6.23529 -1.96521,9.38933c-0.72786,3.15404 -1.4921,6.25955 -2.29274,9.31655c-0.80064,3.05699 -1.58915,5.89563 -2.36553,8.5159l-9.5349,0.87343c-1.55276,-3.97894 -2.99634,-7.99428 -4.33074,-12.046c-1.3344,-4.05173 -2.58389,-8.2005 -3.74845,-12.44632c-1.16457,-4.24582 -2.28061,-8.62508 -3.34813,-13.13778c-1.06752,-4.5127 -2.11078,-9.24376 -3.12978,-14.19317l9.89883,-0.87343c1.21309,7.23003 2.58389,14.58136 4.11238,22.05401c1.5285,7.47265 3.21469,14.65415 5.05859,21.54451c0.87343,-3.15404 1.6498,-6.34447 2.32914,-9.57129c0.67933,-3.22682 1.3344,-6.5143 1.96521,-9.86244c0.63081,-3.34813 1.23735,-6.76905 1.81964,-10.26276c0.58228,-3.4937 1.21309,-7.10872 1.89242,-10.84504l10.99061,-0.87343c1.11604,6.84184 2.32914,13.81712 3.63928,20.92583c1.31014,7.10872 2.79011,13.93843 4.43992,20.48912c1.8439,-6.64774 3.4937,-13.46532 4.94941,-20.45273c1.45571,-6.98741 2.81437,-14.41153 4.07599,-22.27237l9.97161,-0.87343c-1.019,4.90089 -2.05013,9.59556 -3.09338,14.084c-1.04326,4.48844 -2.14717,8.84344 -3.31174,13.065c-1.16457,4.22156 -2.41405,8.37033 -3.74845,12.44632c-1.3344,4.07599 -2.80224,8.15198 -4.40352,12.22797l-9.5349,0.87343c-0.77638,-2.6688 -1.58915,-5.55596 -2.43831,-8.66148c-0.84916,-3.10552 -1.6498,-6.28382 -2.40192,-9.5349c-0.75212,-3.25109 -1.43145,-6.46578 -2.03799,-9.64408c-0.60655,-3.1783 -1.07965,-6.17464 -1.41932,-8.98901l-0.21836,-4.07599z" data-paper-data="{&quot;elementType&quot;:&quot;letter&quot;,&quot;baseline&quot;:71.2,&quot;baselineProportion&quot;:0.9834254143646408,&quot;fontSize&quot;:100}"></path><path d="M212.44268,350.32411c0.24262,3.6878 0.99474,6.27168 2.25635,7.75166c1.26162,1.47997 3.1783,2.21996 5.75006,2.21996c1.94095,0 3.77272,-0.29114 5.49531,-0.87343c1.72259,-0.58228 3.14191,-1.11604 4.25795,-1.60128v6.0412c-1.55276,1.40719 -3.4937,2.38979 -5.82284,2.94781c-2.32914,0.55802 -4.58549,0.83703 -6.76905,0.83703c-1.79538,0 -3.56649,-0.21836 -5.31334,-0.65507c-1.74685,-0.43671 -3.31174,-1.27375 -4.69467,-2.5111c-1.38292,-1.23735 -2.49897,-2.95994 -3.34813,-5.16777c-0.84916,-2.20783 -1.27375,-5.10712 -1.27375,-8.69787c0,-3.54223 0.43671,-6.63561 1.31014,-9.28015c0.87343,-2.64454 2.07439,-4.84024 3.60288,-6.58709c1.5285,-1.74685 3.32387,-3.05699 5.38613,-3.93042c2.06226,-0.87343 4.30648,-1.31014 6.73266,-1.31014c2.47471,0 4.50057,0.42458 6.07759,1.27375c1.57702,0.84916 2.81437,1.92882 3.71206,3.23896c0.89769,1.31014 1.50423,2.76585 1.81964,4.36713c0.3154,1.60128 0.47311,3.15404 0.47311,4.65827c0,1.55276 -0.10918,2.95994 -0.32753,4.22156c-0.21836,1.26162 -0.49737,2.28061 -0.83703,3.05699h-18.48752M218.70223,334.82079c-1.89242,0 -3.36026,0.81277 -4.40352,2.43831c-1.04326,1.62554 -1.66194,4.18517 -1.85603,7.67887h12.00961c0,-0.19409 0.01213,-0.43671 0.03639,-0.72786c0.02426,-0.29114 0.03639,-0.55802 0.03639,-0.80064c0,-0.77638 -0.07279,-1.66194 -0.21836,-2.65667c-0.14557,-0.99474 -0.43671,-1.92882 -0.87343,-2.80224c-0.43671,-0.87343 -1.03113,-1.61341 -1.78324,-2.21996c-0.75212,-0.60655 -1.73472,-0.90982 -2.94781,-0.90982z" data-paper-data="{&quot;elementType&quot;:&quot;letter&quot;,&quot;baseline&quot;:51.2,&quot;baselineProportion&quot;:0.9770992366412213,&quot;fontSize&quot;:100}"></path><path d="M246.36072,367.64706c-3.05699,0 -5.51957,-1.04326 -7.38773,-3.12978c-1.86816,-2.08652 -2.80224,-4.80384 -2.80224,-8.15198c0,-3.4937 1.019,-6.28382 3.05699,-8.37033c2.03799,-2.08652 4.75532,-3.12978 8.15198,-3.12978c1.40719,0 2.81437,0.19409 4.22156,0.58228c1.40719,0.38819 2.6688,0.94621 3.78485,1.67407v-4.07599c0,-2.28061 -0.43671,-3.88189 -1.31014,-4.80384c-0.87343,-0.92195 -2.37766,-1.38292 -4.5127,-1.38292c-1.45571,0 -2.99634,0.18196 -4.62188,0.54589c-1.62554,0.36393 -2.92355,0.81277 -3.89402,1.34653l-2.25635,-6.98741c0.72786,-0.29114 1.60128,-0.58228 2.62028,-0.87343c1.019,-0.29114 2.11078,-0.53376 3.27535,-0.72786c1.16457,-0.19409 2.3534,-0.3518 3.56649,-0.47311c1.21309,-0.12131 2.32914,-0.18196 3.34813,-0.18196c8.54017,0 12.81025,4.17304 12.81025,12.51911c0,0.72786 -0.03639,1.79538 -0.10918,3.20256c-0.07279,1.40719 -0.14557,2.87503 -0.21836,4.40352c-0.07279,1.5285 -0.14557,2.94781 -0.21836,4.25795c-0.07279,1.31014 -0.10918,2.23209 -0.10918,2.76585c0,1.11604 0.16983,1.91669 0.5095,2.40192c0.33967,0.48524 0.97047,0.72786 1.89242,0.72786c0.63081,0 1.35866,-0.09705 2.18357,-0.29114l-1.16457,6.98741c-0.77638,0.24262 -1.4921,0.43671 -2.14717,0.58228c-0.65507,0.14557 -1.32227,0.21836 -2.0016,0.21836c-1.79538,0 -3.29961,-0.49737 -4.5127,-1.4921c-1.21309,-0.99474 -1.94095,-2.41405 -2.18357,-4.25795c-0.97047,1.89242 -2.32914,3.38453 -4.07599,4.47631c-1.74685,1.09178 -3.71206,1.63767 -5.89563,1.63767M249.85443,360.95079c1.55276,0 2.87503,-0.55802 3.96681,-1.67407c1.09178,-1.11604 1.63767,-2.52323 1.63767,-4.22156c0,-1.45571 -0.43671,-2.62028 -1.31014,-3.4937c-0.87343,-0.87343 -2.08652,-1.31014 -3.63928,-1.31014c-1.60128,0 -2.8629,0.48524 -3.78485,1.45571c-0.92195,0.97047 -1.38292,2.30487 -1.38292,4.0032c0,1.60128 0.40032,2.87503 1.20096,3.82124c0.80064,0.94621 1.90455,1.41932 3.31174,1.41932z" data-paper-data="{&quot;elementType&quot;:&quot;letter&quot;,&quot;baseline&quot;:51.2,&quot;baselineProportion&quot;:0.9770992366412213,&quot;fontSize&quot;:100}"></path><path d="M304.51635,329.50745c-1.8439,6.89036 -3.85763,13.33188 -6.0412,19.32455c-2.18357,5.99267 -4.60975,11.97322 -7.27855,17.94163l-8.80705,0.87343c-2.52323,-5.96841 -4.81597,-11.94895 -6.87823,-17.94163c-2.06226,-5.99267 -3.96681,-12.43419 -5.71366,-19.32455l9.38933,-0.87343c1.019,4.99794 2.14717,9.92309 3.38453,14.77546c1.23735,4.85237 2.63241,9.60769 4.18517,14.26596c1.69833,-4.60975 3.23896,-9.20737 4.62188,-13.79285c1.38292,-4.58549 2.63241,-9.3772 3.74845,-14.37514z" data-paper-data="{&quot;elementType&quot;:&quot;letter&quot;,&quot;baseline&quot;:51.2,&quot;baselineProportion&quot;:0.9770992366412213,&quot;fontSize&quot;:100}"></path><path d="M316.52596,350.32411c0.24262,3.6878 0.99474,6.27168 2.25635,7.75166c1.26162,1.47997 3.1783,2.21996 5.75006,2.21996c1.94095,0 3.77272,-0.29114 5.49531,-0.87343c1.72259,-0.58228 3.14191,-1.11604 4.25795,-1.60128v6.0412c-1.55276,1.40719 -3.4937,2.38979 -5.82284,2.94781c-2.32914,0.55802 -4.58549,0.83703 -6.76905,0.83703c-1.79538,0 -3.56649,-0.21836 -5.31334,-0.65507c-1.74685,-0.43671 -3.31174,-1.27375 -4.69467,-2.5111c-1.38292,-1.23735 -2.49897,-2.95994 -3.34813,-5.16777c-0.84916,-2.20783 -1.27375,-5.10712 -1.27375,-8.69787c0,-3.54223 0.43671,-6.63561 1.31014,-9.28015c0.87343,-2.64454 2.07439,-4.84024 3.60288,-6.58709c1.5285,-1.74685 3.32387,-3.05699 5.38613,-3.93042c2.06226,-0.87343 4.30648,-1.31014 6.73266,-1.31014c2.47471,0 4.50057,0.42458 6.07759,1.27375c1.57702,0.84916 2.81437,1.92882 3.71206,3.23896c0.89769,1.31014 1.50423,2.76585 1.81964,4.36713c0.3154,1.60128 0.47311,3.15404 0.47311,4.65827c0,1.55276 -0.10918,2.95994 -0.32753,4.22156c-0.21836,1.26162 -0.49737,2.28061 -0.83703,3.05699h-18.48752M322.78551,334.82079c-1.89242,0 -3.36026,0.81277 -4.40352,2.43831c-1.04326,1.62554 -1.66194,4.18517 -1.85603,7.67887h12.00961c0,-0.19409 0.01213,-0.43671 0.03639,-0.72786c0.02426,-0.29114 0.03639,-0.55802 0.03639,-0.80064c0,-0.77638 -0.07279,-1.66194 -0.21836,-2.65667c-0.14557,-0.99474 -0.43671,-1.92882 -0.87343,-2.80224c-0.43671,-0.87343 -1.03113,-1.61341 -1.78324,-2.21996c-0.75212,-0.60655 -1.73472,-0.90982 -2.94781,-0.90982z" data-paper-data="{&quot;elementType&quot;:&quot;letter&quot;,&quot;baseline&quot;:51.2,&quot;baselineProportion&quot;:0.9770992366412213,&quot;fontSize&quot;:100}"></path><path d="M348.47879,329.07074c1.019,1.60128 1.81964,2.99634 2.40192,4.18517c0.58228,1.18883 0.99474,2.43831 1.23735,3.74845c0.48524,-0.72786 1.09178,-1.51636 1.81964,-2.36553c0.72786,-0.84916 1.55276,-1.6498 2.47471,-2.40192c0.92195,-0.75212 1.94095,-1.41932 3.05699,-2.0016c1.11604,-0.58228 2.30487,-0.97047 3.56649,-1.16457l0.65507,10.33554c-2.37766,0 -4.58549,0.20623 -6.62348,0.61868c-2.03799,0.41245 -3.4937,1.10391 -4.36713,2.07439c0.04852,0.92195 0.07279,1.92882 0.07279,3.0206c0,1.09178 0,2.31701 0,3.67567c0,1.55276 0.02426,3.21469 0.07279,4.98581c0.04852,1.77111 0.10918,3.46944 0.18196,5.09499c0.07279,1.62554 0.1577,3.14191 0.25475,4.54909c0.09705,1.40719 0.19409,2.52323 0.29114,3.34813h-10.26276c0.04852,-1.019 0.09705,-2.20783 0.14557,-3.56649c0.04852,-1.35866 0.09705,-2.76585 0.14557,-4.22156c0.04852,-1.45571 0.08492,-2.94781 0.10918,-4.47631c0.02426,-1.5285 0.03639,-2.99634 0.03639,-4.40352c0,-2.23209 -0.04852,-4.06386 -0.14557,-5.49531c-0.09705,-1.43145 -0.29114,-2.6688 -0.58228,-3.71206c-0.29114,-1.04326 -0.67933,-2.0016 -1.16457,-2.87503c-0.48524,-0.87343 -1.11604,-1.89242 -1.89242,-3.05699z" data-paper-data="{&quot;elementType&quot;:&quot;letter&quot;,&quot;baseline&quot;:51.800000000000004,&quot;baselineProportion&quot;:1,&quot;fontSize&quot;:100}"></path></g></g></g></g><g data-paper-data="{&quot;elementType&quot;:&quot;emblem&quot;}" fill="#ffffff" stroke-width="1"><g data-paper-data="{&quot;baselineProportion&quot;:0.9834254143646408,&quot;fontSize&quot;:100,&quot;baseline&quot;:71.2,&quot;elementType&quot;:&quot;word&quot;}"><path d="M249.08539,165.27886l-0.60974,11.3818c-0.81299,7.58787 -2.03246,15.71772 -3.65844,24.38957c-1.62597,8.67185 -3.45519,17.41144 -5.48765,26.21879c-2.03246,8.80734 -4.16655,17.47919 -6.40226,26.01554c-2.23571,8.53635 -4.43755,16.46296 -6.60551,23.77983l-26.62528,2.43896c-4.33592,-11.1108 -8.36698,-22.32323 -12.09316,-33.63728c-3.72618,-11.31405 -7.21525,-22.8991 -10.46719,-34.75514c-3.25194,-11.85604 -6.36839,-24.0847 -9.34934,-36.68598c-2.98095,-12.60128 -5.89415,-25.8123 -8.7396,-39.63305l27.64151,-2.43896c3.38744,20.18914 7.21525,40.71703 11.48342,61.58366c4.26817,20.86663 8.97672,40.92028 14.12563,60.16094c2.43896,-8.80734 4.60692,-17.71631 6.50389,-26.7269c1.89697,-9.01059 3.72618,-18.19055 5.48765,-27.53989c1.76147,-9.34934 3.45519,-18.90192 5.08116,-28.65775c1.62597,-9.75583 3.38744,-19.8504 5.28441,-30.28372l30.69021,-2.43896c3.11645,19.10516 6.50389,38.58295 10.16232,58.43335c3.65844,19.8504 7.79111,38.92169 12.39803,57.21387c5.14891,-18.56317 9.75583,-37.60059 13.82076,-57.11224c4.06493,-19.51166 7.85886,-40.24279 11.3818,-62.1934l27.84476,-2.43896c-2.84545,13.68526 -5.72477,26.79465 -8.63797,39.32818c-2.9132,12.53353 -5.99577,24.69444 -9.24771,36.48273c-3.25194,11.78829 -6.74101,23.37334 -10.46719,34.75514c-3.72618,11.3818 -7.82499,22.7636 -12.29641,34.1454l-26.62528,2.43896c-2.16796,-7.45237 -4.43755,-15.51448 -6.80876,-24.18632c-2.37121,-8.67185 -4.60692,-17.54694 -6.70713,-26.62528c-2.10021,-9.07834 -3.99718,-18.05506 -5.6909,-26.93015c-1.69372,-8.87509 -3.01482,-17.24207 -3.96331,-25.10093l-0.60974,-11.3818z" data-paper-data="{&quot;elementType&quot;:&quot;letter&quot;,&quot;baseline&quot;:71.2,&quot;baselineProportion&quot;:0.9834254143646408,&quot;fontSize&quot;:100}"></path></g></g></g></svg>